# AST/ASF file generated using VICON BodyLanguage
# -----------------------------------------------
:version 1.10
:name VICON
:units
  mass 1.0
  length 0.45
  angle deg
:documentation
   .ast/.asf automatically generated from VICON data using
   VICON BodyBuilder and BodyLanguage model FoxedUp or BRILLIANT.MOD
:root
   order TX TY TZ RX RY RZ
   axis XYZ
   position 0 0 0  
   orientation 0 0 0 
:bonedata
  begin
     id 1 
     name lhipjoint
     direction 0.70531 -0.63749 0.310071 
     length 2.59589 
     axis 0 0 0  XYZ
  end
  begin
     id 2 
     name lfemur
     direction 0.34202 -0.939693 0  
     length 6.19797  
     axis 0 0 20  XYZ
    dof rx ry rz
    limits (-160.0 20.0)
           (-70.0 70.0)
           (-60.0 70.0)
  end
  begin
     id 3 
     name ltibia
     direction 0.34202 -0.939693 0   
     length 7.80054   
     axis 0 0 20   XYZ
    dof rx
    limits (-10.0 170.0)
  end
  begin
     id 4 
     name lfoot
     direction 0.0828572 -0.227648 0.970212   
     length 1.88124   
     axis -90 7.62852e-016 20   XYZ
    dof rx rz
    limits (-45.0 90.0)
           (-70.0 20.0)
  end
  begin
     id 5 
     name ltoes
     direction 1.53544e-011 -4.219e-011 1   
     length 0.948015   
     axis -90 7.62852e-016 20   XYZ
    dof rx
    limits (-90.0 20.0)
  end
  begin
     id 6 
     name rhipjoint
     direction -0.730062 -0.614543 0.29891   
     length 2.69282  
     axis 0 0 0  XYZ 
  end
  begin
     id 7 
     name rfemur
     direction -0.34202 -0.939693 0   
     length 5.86298   
     axis 0 0 -20   XYZ
    dof rx ry rz
    limits (-160.0 20.0)
           (-70.0 70.0)
           (-70.0 60.0)
  end
  begin
     id 8 
     name rtibia
     direction -0.34202 -0.939693 0   
     length 7.72374   
     axis 0 0 -20   XYZ
    dof rx
    limits (-10.0 170.0)
 end
 begin
     id 9 
     name rfoot
     direction -0.0967421 -0.265797 0.959163   
     length 2.02368  
     axis -90 -7.62852e-016 -20   XYZ
    dof rx rz
    limits (-45.0 90.0)
           (-20.0 70.0)
  end
  begin
     id 10 
     name rtoes
     direction -1.53524e-011 -4.21768e-011 1   
     length 1.01373   
     axis -90 -7.62852e-016 -20   XYZ
    dof rx
    limits (-90.0 20.0)
  end
  begin
     id 11 
     name lowerback
     direction 0.00561702 0.992801 -0.119643   
     length 2.02816   
     axis 0 0 0   XYZ
    dof rx ry rz
    limits (-20.0 45.0)
           (-30.0 30.0)
           (-30.0 30.0)
  end
  begin
     id 12 
     name upperback
     direction 0.00155544 0.995735 -0.0922509   
     length 2.02265   
     axis 0 0 0   XYZ
    dof rx ry rz
    limits (-20.0 45.0)
           (-30.0 30.0)
           (-30.0 30.0)
  end
  begin
     id 13 
     name thorax
     direction -0.000937535 0.999317 -0.0369292   
     length 2.04823   
     axis 0 0 0   XYZ
    dof rx ry rz
    limits (-20.0 45.0)
           (-30.0 30.0)
           (-30.0 30.0)
  end
  begin
     id 14 
     name lowerneck
     direction -0.0813151 0.981659 0.172436   
     length 1.8875   
     axis 0 0 0   XYZ
    dof rx ry rz
    limits (-20.0 45.0)
           (-30.0 30.0)
           (-30.0 30.0)
  end
  begin
     id 15 
     name upperneck
     direction 0.119359 0.955672 -0.269157   
     length 1.92801   
     axis 0 0 0   XYZ
    dof rx ry rz
    limits (-20.0 45.0)
           (-30.0 30.0)
           (-30.0 30.0)
  end
  begin
     id 16
     name head
     direction 0.0421007 0.992672 -0.113268  
     length 1.95809  
     axis 0 0 0   XYZ
    dof rx ry rz
    limits (-20.0 45.0)
           (-30.0 30.0)
           (-30.0 30.0)
  end
  begin
     id 17 
     name lclavicle
     direction 0.944093 0.32865 -0.0260136  
     length 3.84992  
     axis 0 0 0   XYZ
    dof ry rz
    limits (-20.0 10.0)
           (0.0 20.0)
  end
  begin
     id 18 
     name lhumerus
     direction 1 -4.48979e-011 -1.27712e-029   
     length 5.53593   
     axis 180 -30 -90   XYZ
    dof rx ry rz
    limits (-60.0 90.0)
           (-90.0 90.0)
           (-90.0 90.0)
  end
  begin
     id 19
     name lradius
     direction 1 -4.48966e-011 1.00051e-028   
     length 3.13345   
     axis 180 -30 -90   XYZ
    dof rx
    limits (-10.0 170.0)
  end
  begin
     id 20
     name lwrist
     direction 1 -4.4896e-011 2.56952e-028   
     length 1.56673   
     axis -5.12785e-016 90 90   XYZ
    dof ry
    limits (-180.0 0.0)
 end
  begin
     id 21 
     name lhand
     direction 1 -4.48934e-011 5.13905e-028   
     length 0.713374   
     axis -3.27915e-016 90 90   XYZ
    dof rx rz
    limits (-90.0 90.0)
           (-45.0 45.0)
  end
  begin
     id 22 
     name lfingers
     direction 1 -4.48973e-011 1.02781e-027   
     length 0.575141   
     axis -6.5583e-016 90 90   XYZ
    dof rx
    limits (0.0 90.0)
  end
  begin
     id 23
     name lthumb
     direction 0.707107 -6.34883e-011 0.707107   
     length 0.82579   
     axis -90 45 2.85299e-015   XYZ
    dof rx rz
    limits (-45.0 45.0)
           (-45.0 45.0)
  end
  begin
     id 24 
     name rclavicle
     direction -0.936895 0.34884 0.0232243   
     length 3.53304  
     axis 0 0 0   XYZ 
    dof ry rz
    limits (-10.0 20.0)
           (-20.0 0.0)
  end
  begin
     id 25 
     name rhumerus
     direction -1 -4.48965e-011 1.05514e-027  
     length 5.4685   
     axis 180 30 90   XYZ
    dof rx ry rz
    limits (-90.0 60.0)
           (-90.0 90.0)
           (-90.0 90.0)
  end
  begin
     id 26 
     name rradius
     direction -1 -4.48964e-011 -1.1079e-027   
     length 3.22411   
     axis 180 30 90   XYZ
    dof rx
    limits (-10.0 170.0)
  end
  begin
     id 27 
     name rwrist
     direction -1 -4.48973e-011 2.56952e-028   
     length 1.61206   
     axis -5.12785e-016 -90 -90   XYZ
    dof ry
    limits (-180.0 0.0)
  end
  begin
     id 28
     name rhand
     direction -1 -4.48957e-011 5.13905e-028   
     length 0.74528   
     axis -3.27915e-016 -90 -90   XYZ
    dof rx rz
    limits (-90.0 90.0)
           (-45.0 45.0)
  end
  begin
     id 29
     name rfingers
     direction -1 -4.4901e-011 1.02781e-027   
     length 0.600864   
     axis -6.5583e-016 -90 -90   XYZ
    dof rx
    limits (0.0 90.0)
  end
  begin
     id 30
     name rthumb
     direction -0.707107 -6.34972e-011 0.707107   
     length 0.862724   
     axis -90 -45 -2.85299e-015   XYZ
    dof rx rz
    limits (-45.0 45.0)
           (-45.0 45.0)
  end
:hierarchy
  begin
    root lhipjoint rhipjoint lowerback
    lhipjoint lfemur
    lfemur ltibia
    ltibia lfoot
    lfoot ltoes
    rhipjoint rfemur
    rfemur rtibia
    rtibia rfoot
    rfoot rtoes
    lowerback upperback
    upperback thorax
    thorax lowerneck lclavicle rclavicle
    lowerneck upperneck
    upperneck head
    lclavicle lhumerus
    lhumerus lradius
    lradius lwrist
    lwrist lhand lthumb
    lhand lfingers
    rclavicle rhumerus
    rhumerus rradius
    rradius rwrist
    rwrist rhand rthumb
    rhand rfingers
  end

#!OML:ASF G:\Work\Work\Patient Classification 1\Liu\Session 1\Liu.ASF
:FULLY-SPECIFIED
:DEGREES
227
root 10.5267 16.7638 -8.97743 3.81139 0.277494 3.44185
lowerback 0.509132 -0.580086 -2.07877
upperback 0.426862 -0.77937 -1.51144
thorax 0.158355 -0.392407 -0.379473
lowerneck -24.4619 -5.42056 -12.8825
upperneck 23.716 -5.80174 10.4938
head 12.668 -2.37701 5.16699
rclavicle 1.51263e-014 -1.36167e-014
rhumerus -39.0979 22.3686 -92.1248
rradius 46.0787
rwrist -15.6146
rhand -16.2838 19.0865
rfingers 7.12502
rthumb 9.92634 -10.6595
lclavicle 1.51263e-014 -1.36167e-014
lhumerus -33.4677 -1.54501 82.1635
lradius 20.854
lwrist -10.3205
lhand -14.1469 31.4815
lfingers 7.12502
lthumb 11.9874 61.1182
rfemur -27.2009 -9.79002 18.9532
rtibia 68.4831
rfoot -3.34394 -16.9472
rtoes 2.09589
lfemur -11.4133 -1.62676 -28.9094
ltibia 18.6183
lfoot -9.92691 2.20643
ltoes -5.13202
228
root 10.5269 16.7383 -8.79011 3.84656 0.790145 3.32401
lowerback 0.675248 -0.800866 -2.0407
upperback 0.207439 -1.08403 -1.34343
thorax -0.154222 -0.541715 -0.223149
lowerneck -24.4805 -5.46004 -12.6769
upperneck 24.311 -5.85614 10.0818
head 12.8952 -2.44214 4.97881
rclavicle -1.60394e-014 -1.09332e-015
rhumerus -39.9148 22.3984 -92.2721
rradius 46.5691
rwrist -16.0446
rhand -14.9935 17.2103
rfingers 7.12502
rthumb 11.171 -12.4723
lclavicle -1.60394e-014 -1.09332e-015
lhumerus -33.0027 -2.59431 82.6359
lradius 21.0809
lwrist -9.32163
lhand -14.5123 31.0858
lfingers 7.12502
lthumb 11.6351 60.7428
rfemur -28.6289 -10.0187 19.4416
rtibia 67.8417
rfoot -4.74447 -16.4716
rtoes -0.0107245
lfemur -11.0235 -1.94194 -28.8007
ltibia 19.2236
lfoot -10.8429 1.74953
ltoes -4.65492
229
root 10.5263 16.7087 -8.60191 3.82997 1.31614 3.21107
lowerback 0.745778 -1.02826 -1.98242
upperback 0.189455 -1.38895 -1.2015
thorax -0.206653 -0.693695 -0.106741
lowerneck -24.2236 -5.25344 -12.791
upperneck 24.1588 -5.62863 10.3805
head 12.7653 -2.31818 5.15619
rclavicle 8.36138e-015 -1.17283e-014
rhumerus -40.4522 22.6348 -92.4956
rradius 46.5797
rwrist -15.5665
rhand -14.8344 16.7281
rfingers 7.12502
rthumb 11.3244 -12.9461
lclavicle 8.36138e-015 -1.17283e-014
lhumerus -32.3794 -3.54948 82.9784
lradius 21.5279
lwrist -8.3302
lhand -14.5759 30.7061
lfingers 7.12502
lthumb 11.5737 60.3665
rfemur -29.8839 -10.2297 19.8872
rtibia 67.0215
rfoot -6.39245 -15.9852
rtoes -2.60748
lfemur -10.7823 -2.26095 -28.6992
ltibia 20.1736
lfoot -11.7968 1.21797
ltoes -4.48221
230
root 10.5301 16.6627 -8.40021 3.74106 1.8019 3.30173
lowerback 0.768811 -1.26193 -2.09719
upperback 0.226902 -1.70088 -1.10497
thorax -0.171002 -0.850018 0.0585487
lowerneck -24.1022 -5.04832 -12.8513
upperneck 24.0255 -5.37792 10.5832
head 12.6604 -2.188 5.2895
rclavicle -8.02282e-015 -9.39258e-015
rhumerus -40.7862 22.9105 -92.5889
rradius 46.6366
rwrist -15.9531
rhand -14.8198 16.7221
rfingers 7.12502
rthumb 11.3385 -12.9514
lclavicle -8.02282e-015 -9.39258e-015
lhumerus -31.8652 -4.57268 83.3466
lradius 22.3656
lwrist -7.26634
lhand -14.2342 31.0277
lfingers 7.12502
lthumb 11.9033 60.6694
rfemur -30.9687 -10.4822 19.9813
rtibia 66.0764
rfoot -7.84989 -15.4117
rtoes -3.5617
lfemur -10.4038 -2.65431 -28.8507
ltibia 21.267
lfoot -12.8759 0.465812
ltoes -2.35863
231
root 10.5329 16.6141 -8.20367 3.67403 2.21211 3.38579
lowerback 0.828829 -1.45534 -2.24592
upperback 0.163302 -1.96281 -0.998864
thorax -0.25675 -0.979785 0.254773
lowerneck -23.9096 -4.9238 -12.8141
upperneck 24.0972 -5.23303 10.545
head 12.627 -2.13108 5.29689
rclavicle 9.89109e-015 -3.14328e-015
rhumerus -41.3068 23.0073 -92.6018
rradius 47.1568
rwrist -16.9789
rhand -14.8923 16.5396
rfingers 7.12502
rthumb 11.2686 -13.1377
lclavicle 9.89109e-015 -3.14328e-015
lhumerus -31.3605 -5.92789 83.8398
lradius 23.0065
lwrist -6.1644
lhand -13.9177 31.8089
lfingers 7.12502
lthumb 12.2084 61.4326
rfemur -32.0546 -10.57 20.0571
rtibia 64.9925
rfoot -8.89725 -14.9035
rtoes -3.36036
lfemur -9.84868 -2.88982 -29.0012
ltibia 22.1305
lfoot -13.9744 -0.0981071
ltoes -2.39876
